HIERARCHY
ROOT Hips
{
	OFFSET -0.001795 -0.223333 0.028219
	CHANNELS 6 Xposition Yposition Zposition Zrotation Yrotation Xrotation 
	JOINT LeftUpLeg
	{
		OFFSET 0.069520 -0.091406 -0.006815
		CHANNELS 3 Zrotation Yrotation Xrotation
		JOINT LeftLeg
		{
			OFFSET 0.034277 -0.375199 -0.004496
			CHANNELS 3 Zrotation Yrotation Xrotation
			JOINT LeftFoot
			{
				OFFSET -0.013596 -0.397961 -0.043693
				CHANNELS 3 Zrotation Yrotation Xrotation
				JOINT LeftToe
				{
					OFFSET 0.026358 -0.055791 0.119288
					CHANNELS 3 Zrotation Yrotation Xrotation
					End Site
					{
						OFFSET 0.000000 0.000000 0.000000
					}
				}
			}
		}
	}
	JOINT RightUpLeg
	{
		OFFSET -0.067670 -0.090522 -0.004320
		CHANNELS 3 Zrotation Yrotation Xrotation
		JOINT RightLeg
		{
			OFFSET -0.038290 -0.382569 -0.008850
			CHANNELS 3 Zrotation Yrotation Xrotation
			JOINT RightFoot
			{
				OFFSET 0.015774 -0.398415 -0.042312
				CHANNELS 3 Zrotation Yrotation Xrotation
				JOINT RightToe
				{
					OFFSET -0.025372 -0.048144 0.123348
					CHANNELS 3 Zrotation Yrotation Xrotation
					End Site
					{
						OFFSET 0.000000 0.000000 0.000000
					}
				}
			}
		}
	}
	JOINT Spine
	{
		OFFSET -0.002533 0.108963 -0.026696
		CHANNELS 3 Zrotation Yrotation Xrotation
		JOINT Spine1
		{
			OFFSET 0.005487 0.135180 0.001092
			CHANNELS 3 Zrotation Yrotation Xrotation
			JOINT Spine2
			{
				OFFSET 0.001457 0.052922 0.025425
				CHANNELS 3 Zrotation Yrotation Xrotation
				JOINT Neck
				{
					OFFSET -0.002778 0.213870 -0.042857
					CHANNELS 3 Zrotation Yrotation Xrotation
					JOINT Head
					{
						OFFSET 0.005152 0.064970 0.051349
						CHANNELS 3 Zrotation Yrotation Xrotation
						End Site
						{
							OFFSET 0.000000 0.000000 0.000000
						}
					}
				}
				JOINT LeftShoulder
				{
					OFFSET 0.078845 0.121749 -0.034090
					CHANNELS 3 Zrotation Yrotation Xrotation
					JOINT LeftArm
					{
						OFFSET 0.090977 0.030469 -0.008868
						CHANNELS 3 Zrotation Yrotation Xrotation
						JOINT LeftForeArm
						{
							OFFSET 0.259612 -0.012772 -0.027456
							CHANNELS 3 Zrotation Yrotation Xrotation
							JOINT LeftHand
							{
								OFFSET 0.249234 0.008986 -0.001171
								CHANNELS 3 Zrotation Yrotation Xrotation
								End Site
								{
									OFFSET 0.000000 0.000000 0.000000
								}
							}
						}
					}
				}
				JOINT RightShoulder
				{
					OFFSET -0.081759 0.118833 -0.038615
					CHANNELS 3 Zrotation Yrotation Xrotation
					JOINT RightArm
					{
						OFFSET -0.096012 0.032551 -0.009143
						CHANNELS 3 Zrotation Yrotation Xrotation
						JOINT RightForeArm
						{
							OFFSET -0.253742 -0.013329 -0.021401
							CHANNELS 3 Zrotation Yrotation Xrotation
							JOINT RightHand
							{
								OFFSET -0.255298 0.007772 -0.005559
								CHANNELS 3 Zrotation Yrotation Xrotation
								End Site
								{
									OFFSET 0.000000 0.000000 0.000000
								}
							}
						}
					}
				}
			}
		}
	}
}
MOTION
Frames: 5
Frame Time: 0.050000
0.000000 0.695328 0.000000 -2.004381 -0.426629 18.829235 14.664796 -2.201188 49.089117 -21.235601 -9.395650 -76.470784 87.646364 40.161332 99.773767 0.000000 0.000000 0.000000 -27.117988 6.856374 36.085280 31.114199 14.750256 -74.841786 -91.620022 -39.290063 110.936147 0.000000 0.000000 0.000000 4.538526 1.841132 -25.898053 -1.873677 1.545173 -77.647290 -1.740364 0.971176 94.781100 14.041438 2.342683 -104.615564 0.000000 0.000000 0.000000 -24.193933 9.964076 -1.484380 -44.382478 -22.186175 -15.931696 -88.034608 76.483141 -54.860187 0.000000 0.000000 0.000000 9.134830 -19.694025 -9.823601 35.613517 -17.237582 -20.590120 -106.515999 -47.504040 70.054161 0.000000 0.000000 0.000000 
-0.001820 0.690784 0.000350 -1.578572 1.327742 19.321983 14.846793 -2.863964 47.395954 -19.104457 -8.551840 -76.048696 89.448025 38.979735 101.989847 0.000000 0.000000 0.000000 -26.495306 6.172233 36.846111 30.528715 13.850144 -75.440963 -93.408269 -39.282157 111.836047 0.000000 0.000000 0.000000 5.005178 1.874593 -28.214276 -8.502257 -0.775138 -78.743526 3.515546 -4.757216 98.377635 -5.950868 2.245539 -103.877452 0.000000 0.000000 0.000000 -24.960665 8.451637 0.457981 -42.416060 -27.498774 -15.852021 -88.052017 74.796299 -52.519196 0.000000 0.000000 0.000000 7.112441 -21.763626 -11.522151 36.503625 -25.158098 -24.701952 -93.607044 -45.150886 55.657850 0.000000 0.000000 0.000000 
-0.003461 0.691126 0.001259 -1.439374 1.203748 18.866121 14.946321 -2.959892 49.214490 -19.405563 -8.755372 -76.141946 82.728667 39.315221 98.335189 0.000000 0.000000 0.000000 -27.201405 6.599359 38.038773 30.531167 14.362917 -77.025230 -91.675233 -38.270060 112.536765 0.000000 0.000000 0.000000 3.873289 1.975026 -32.245220 -3.112061 0.764669 -77.156064 -0.849128 -0.103437 103.270962 -0.632635 2.333972 -104.394509 0.000000 0.000000 0.000000 -25.826802 11.052997 -0.828787 -41.752404 -29.478516 -18.537073 -83.539427 76.808773 -46.584177 0.000000 0.000000 0.000000 8.178748 -19.761053 -10.036582 33.702192 -25.354530 -25.545388 -86.884459 -46.201199 48.474488 0.000000 0.000000 0.000000 
-0.005438 0.687476 0.001804 -1.126983 2.496195 18.958568 14.964945 -3.479454 49.551518 -18.696123 -8.810395 -76.489206 80.682019 40.188168 95.640845 0.000000 0.000000 0.000000 -27.361625 6.278682 38.626319 29.670839 13.841416 -79.014194 -95.544368 -36.743409 116.053743 0.000000 0.000000 0.000000 3.647697 1.770481 -33.433259 -6.036841 -0.308584 -77.260674 1.166100 -2.916365 105.054104 -4.755501 2.455719 -102.474232 0.000000 0.000000 0.000000 -26.398436 11.455737 -0.571114 -42.140007 -32.091452 -18.771468 -84.437290 77.679161 -45.972468 0.000000 0.000000 0.000000 4.769152 -22.052293 -12.432169 34.380627 -29.450208 -27.474093 -80.228899 -39.508460 39.168695 0.000000 0.000000 0.000000 
-0.007486 0.689251 0.002618 -1.293194 3.735042 18.368828 14.445565 -3.639577 49.095532 -16.653662 -8.023736 -76.654742 84.474052 40.485147 96.969309 0.000000 0.000000 0.000000 -26.478107 5.554395 39.172402 29.486923 13.753240 -80.622902 -97.072850 -39.214841 113.649967 0.000000 0.000000 0.000000 3.712280 1.659304 -35.363589 -7.048823 -0.503259 -73.227432 1.016014 -3.264982 103.690804 -1.905892 2.203085 -104.515829 0.000000 0.000000 0.000000 -26.599903 11.836834 -0.583765 -42.467225 -30.471986 -19.899398 -97.116357 76.824698 -54.564969 0.000000 0.000000 0.000000 4.857153 -22.306359 -12.853588 33.310761 -32.016257 -27.884956 -74.869965 -37.343826 33.447326 0.000000 0.000000 0.000000 
